HIERARCHY
ROOT newVegas:Hips
{
	OFFSET 0.000000 96.479958 0.000000
	CHANNELS 6 Xposition Yposition Zposition Xrotation Yrotation Zrotation
	JOINT newVegas:Pelvis
	{
		OFFSET 0.000000 0.000000 0.000000
		CHANNELS 3 Xrotation Yrotation Zrotation
		JOINT newVegas:LeftUpLeg
		{
			OFFSET 18.735201 -5.666702 -4.541200
			CHANNELS 3 Xrotation Yrotation Zrotation
			JOINT newVegas:LeftLeg
			{
				OFFSET -0.021200 -31.938179 0.493100
				CHANNELS 3 Xrotation Yrotation Zrotation
				JOINT newVegas:LeftFoot
				{
					OFFSET 0.021200 -31.938179 -4.336299
					CHANNELS 3 Xrotation Yrotation Zrotation
					JOINT newVegas:LeftToeBase
					{
						OFFSET 0.943001 -26.722000 15.023500
						CHANNELS 3 Xrotation Yrotation Zrotation
						End Site
						{
							OFFSET 0.000000 30.670183 0.000000
						}
					}
				}
				JOINT newVegas:Left_PantLeg
				{
					OFFSET 0.663870 -9.044666 -1.108900
					CHANNELS 3 Xrotation Yrotation Zrotation
					End Site
					{
						OFFSET 1.415995 20.635357 0.000000
					}
				}
			}
		}
		JOINT newVegas:RightUpLeg
		{
			OFFSET -18.735201 -5.666702 -4.541200
			CHANNELS 3 Xrotation Yrotation Zrotation
			JOINT newVegas:RightLeg
			{
				OFFSET 0.018946 -31.938133 0.493100
				CHANNELS 3 Xrotation Yrotation Zrotation
				JOINT newVegas:RightFoot
				{
					OFFSET -0.018946 -31.938126 -4.336299
					CHANNELS 3 Xrotation Yrotation Zrotation
					JOINT newVegas:RightToeBase
					{
						OFFSET -0.943001 -26.722004 15.023500
						CHANNELS 3 Xrotation Yrotation Zrotation
						End Site
						{
							OFFSET 0.000000 30.670187 0.000000
						}
					}
				}
				JOINT newVegas:Right_PantLeg
				{
					OFFSET -0.661674 -9.044716 -1.108900
					CHANNELS 3 Xrotation Yrotation Zrotation
					End Site
					{
						OFFSET -1.415958 20.635269 0.000000
					}
				}
			}
		}
	}
	JOINT newVegas:Spine
	{
		OFFSET 0.000000 10.199997 -0.299500
		CHANNELS 3 Xrotation Yrotation Zrotation
		JOINT newVegas:Spine1
		{
			OFFSET 0.000000 11.900002 -1.516600
			CHANNELS 3 Xrotation Yrotation Zrotation
			JOINT newVegas:Spine2
			{
				OFFSET 0.000000 13.600006 -2.842500
				CHANNELS 3 Xrotation Yrotation Zrotation
				JOINT newVegas:Neck
				{
					OFFSET 0.000000 9.624100 -2.890100
					CHANNELS 3 Xrotation Yrotation Zrotation
					JOINT newVegas:Head
					{
						OFFSET 0.000000 14.068802 -1.351900
						CHANNELS 3 Xrotation Yrotation Zrotation
						JOINT newVegas:Hair_Back
						{
							OFFSET 0.000000 3.231903 -17.524799
							CHANNELS 3 Xrotation Yrotation Zrotation
							End Site
							{
								OFFSET 0.000000 19.849884 0.000000
							}
						}
						JOINT newVegas:Hair_Front
						{
							OFFSET 0.000000 31.260406 4.573800
							CHANNELS 3 Xrotation Yrotation Zrotation
							JOINT newVegas:Hair_Front1
							{
								OFFSET 0.000000 2.284103 11.993300
								CHANNELS 3 Xrotation Yrotation Zrotation
								JOINT newVegas:Hair_Front2
								{
									OFFSET 0.000000 2.284103 11.993300
									CHANNELS 3 Xrotation Yrotation Zrotation
									End Site
									{
										OFFSET 0.000000 12.208862 0.000000
									}
								}
							}
						}
						JOINT newVegas:Jowel
						{
							OFFSET 0.000000 -7.458206 6.864100
							CHANNELS 3 Xrotation Yrotation Zrotation
							End Site
							{
								OFFSET 0.000000 19.849884 0.000000
							}
						}
					}
				}
				JOINT newVegas:LeftShoulder
				{
					OFFSET 15.263000 10.923401 -0.547700
					CHANNELS 3 Xrotation Yrotation Zrotation
					JOINT newVegas:LeftArm
					{
						OFFSET 25.438599 -2.830597 -13.032500
						CHANNELS 3 Xrotation Yrotation Zrotation
						JOINT newVegas:LeftForeArm
						{
							OFFSET 29.960503 0.000000 0.000000
							CHANNELS 3 Xrotation Yrotation Zrotation
							JOINT newVegas:LeftHand
							{
								OFFSET 27.849251 0.000000 0.000000
								CHANNELS 3 Xrotation Yrotation Zrotation
								JOINT newVegas:LeftHandThumb1
								{
									OFFSET 4.487587 -3.305161 6.305391
									CHANNELS 3 Xrotation Yrotation Zrotation
									JOINT newVegas:LeftHandThumb2
									{
										OFFSET 5.480453 -3.164139 3.164143
										CHANNELS 3 Xrotation Yrotation Zrotation
										JOINT newVegas:LeftHandThumb3
										{
											OFFSET 5.159721 -2.978973 2.978967
											CHANNELS 3 Xrotation Yrotation Zrotation
											End Site
											{
												OFFSET 2.494507 5.926697 1.738678
											}
										}
									}
								}
								JOINT newVegas:LeftHandIndex1
								{
									OFFSET 18.578728 -0.527832 5.208049
									CHANNELS 3 Xrotation Yrotation Zrotation
									JOINT newVegas:LeftHandIndex2
									{
										OFFSET 3.192009 0.000000 0.000000
										CHANNELS 3 Xrotation Yrotation Zrotation
										JOINT newVegas:LeftHandIndex3
										{
											OFFSET 3.835129 0.000000 0.000000
											CHANNELS 3 Xrotation Yrotation Zrotation
											End Site
											{
												OFFSET -0.034599 3.816971 0.371180
											}
										}
									}
								}
								JOINT newVegas:LeftHandMiddle1
								{
									OFFSET 18.476105 0.000000 0.000000
									CHANNELS 3 Xrotation Yrotation Zrotation
									JOINT newVegas:LeftHandMiddle2
									{
										OFFSET 3.324875 0.000000 0.000000
										CHANNELS 3 Xrotation Yrotation Zrotation
										JOINT newVegas:LeftHandMiddle3
										{
											OFFSET 4.596550 0.000000 0.000000
											CHANNELS 3 Xrotation Yrotation Zrotation
											End Site
											{
												OFFSET 0.057701 4.578827 0.399218
											}
										}
									}
								}
								JOINT newVegas:LeftHandRing1
								{
									OFFSET 17.732719 0.121887 -4.201567
									CHANNELS 3 Xrotation Yrotation Zrotation
									JOINT newVegas:LeftHandRing2
									{
										OFFSET 2.733170 0.000000 0.000000
										CHANNELS 3 Xrotation Yrotation Zrotation
										JOINT newVegas:LeftHandRing3
										{
											OFFSET 3.178268 0.000000 0.000000
											CHANNELS 3 Xrotation Yrotation Zrotation
											End Site
											{
												OFFSET 0.119102 3.170624 0.185394
											}
										}
									}
								}
								JOINT newVegas:LeftHandPinky1
								{
									OFFSET 15.989624 -0.606689 -7.535461
									CHANNELS 3 Xrotation Yrotation Zrotation
									JOINT newVegas:LeftHandPinky2
									{
										OFFSET 2.538986 0.000000 0.000000
										CHANNELS 3 Xrotation Yrotation Zrotation
										JOINT newVegas:LeftHandPinky3
										{
											OFFSET 2.593102 0.000000 0.000000
											CHANNELS 3 Xrotation Yrotation Zrotation
											End Site
											{
												OFFSET -0.150902 2.584198 0.152708
											}
										}
									}
								}
							}
							JOINT newVegas:Left_Sleeve
							{
								OFFSET 0.267448 -0.649796 0.577675
								CHANNELS 3 Xrotation Yrotation Zrotation
								End Site
								{
									OFFSET 0.000000 15.991241 0.000000
								}
							}
							JOINT newVegas:Left_CapeC
							{
								OFFSET 15.715958 -8.608795 -6.935905
								CHANNELS 3 Xrotation Yrotation Zrotation
								JOINT newVegas:Left_CapeC1
								{
									OFFSET 0.000000 -8.688499 0.000000
									CHANNELS 3 Xrotation Yrotation Zrotation
									End Site
									{
										OFFSET 0.000000 8.688499 0.000000
									}
								}
							}
						}
						JOINT newVegas:Left_CapeB
						{
							OFFSET 26.118385 -8.608795 -7.079235
							CHANNELS 3 Xrotation Yrotation Zrotation
							JOINT newVegas:Left_CapeB1
							{
								OFFSET 0.000000 -8.688499 0.000000
								CHANNELS 3 Xrotation Yrotation Zrotation
								End Site
								{
									OFFSET 0.000000 8.688499 0.000000
								}
							}
						}
						JOINT newVegas:Left_CapeA
						{
							OFFSET 5.115639 -8.608795 -10.395809
							CHANNELS 3 Xrotation Yrotation Zrotation
							JOINT newVegas:Left_CapeA1
							{
								OFFSET 0.000000 -8.688499 0.000000
								CHANNELS 3 Xrotation Yrotation Zrotation
								End Site
								{
									OFFSET 0.000000 8.688499 0.000000
								}
							}
						}
					}
				}
				JOINT newVegas:RightShoulder
				{
					OFFSET -15.263000 10.923401 -0.547700
					CHANNELS 3 Xrotation Yrotation Zrotation
					JOINT newVegas:RightArm
					{
						OFFSET -25.438599 -2.830597 -13.032500
						CHANNELS 3 Xrotation Yrotation Zrotation
						JOINT newVegas:RightForeArm
						{
							OFFSET -29.960503 0.000000 0.000000
							CHANNELS 3 Xrotation Yrotation Zrotation
							JOINT newVegas:RightHand
							{
								OFFSET -27.849251 0.000000 0.000000
								CHANNELS 3 Xrotation Yrotation Zrotation
								JOINT newVegas:RightHandThumb1
								{
									OFFSET -4.487587 -3.305161 6.305391
									CHANNELS 3 Xrotation Yrotation Zrotation
									JOINT newVegas:RightHandThumb2
									{
										OFFSET -5.480453 -3.164139 3.164143
										CHANNELS 3 Xrotation Yrotation Zrotation
										JOINT newVegas:RightHandThumb3
										{
											OFFSET -5.159721 -2.978973 2.978967
											CHANNELS 3 Xrotation Yrotation Zrotation
											End Site
											{
												OFFSET -2.494507 5.926697 1.738678
											}
										}
									}
								}
								JOINT newVegas:RightHandIndex1
								{
									OFFSET -18.578728 -0.527832 5.208049
									CHANNELS 3 Xrotation Yrotation Zrotation
									JOINT newVegas:RightHandIndex2
									{
										OFFSET -3.192009 0.000000 0.000000
										CHANNELS 3 Xrotation Yrotation Zrotation
										JOINT newVegas:RightHandIndex3
										{
											OFFSET -3.835129 0.000000 0.000000
											CHANNELS 3 Xrotation Yrotation Zrotation
											End Site
											{
												OFFSET 0.034599 3.816971 0.371180
											}
										}
									}
								}
								JOINT newVegas:RightHandMiddle1
								{
									OFFSET -18.476105 0.000000 0.000000
									CHANNELS 3 Xrotation Yrotation Zrotation
									JOINT newVegas:RightHandMiddle2
									{
										OFFSET -3.324875 0.000000 0.000000
										CHANNELS 3 Xrotation Yrotation Zrotation
										JOINT newVegas:RightHandMiddle3
										{
											OFFSET -4.596550 0.000000 0.000000
											CHANNELS 3 Xrotation Yrotation Zrotation
											End Site
											{
												OFFSET -0.057701 4.578827 0.399218
											}
										}
									}
								}
								JOINT newVegas:RightHandRing1
								{
									OFFSET -17.732719 0.121887 -4.201567
									CHANNELS 3 Xrotation Yrotation Zrotation
									JOINT newVegas:RightHandRing2
									{
										OFFSET -2.733170 0.000000 0.000000
										CHANNELS 3 Xrotation Yrotation Zrotation
										JOINT newVegas:RightHandRing3
										{
											OFFSET -3.178268 0.000000 0.000000
											CHANNELS 3 Xrotation Yrotation Zrotation
											End Site
											{
												OFFSET -0.119102 3.170624 0.185394
											}
										}
									}
								}
								JOINT newVegas:RightHandPinky1
								{
									OFFSET -15.989624 -0.606689 -7.535461
									CHANNELS 3 Xrotation Yrotation Zrotation
									JOINT newVegas:RightHandPinky2
									{
										OFFSET -2.538986 0.000000 0.000000
										CHANNELS 3 Xrotation Yrotation Zrotation
										JOINT newVegas:RightHandPinky3
										{
											OFFSET -2.593102 0.000000 0.000000
											CHANNELS 3 Xrotation Yrotation Zrotation
											End Site
											{
												OFFSET 0.150902 2.584198 0.152708
											}
										}
									}
								}
							}
							JOINT newVegas:Right_CapeC
							{
								OFFSET -15.715958 -8.608795 -6.935905
								CHANNELS 3 Xrotation Yrotation Zrotation
								JOINT newVegas:Right_CapeC1
								{
									OFFSET 0.000000 -8.688499 0.000000
									CHANNELS 3 Xrotation Yrotation Zrotation
									End Site
									{
										OFFSET 0.000000 8.688499 0.000000
									}
								}
							}
							JOINT newVegas:Right_Sleeve
							{
								OFFSET -0.267448 -0.649994 0.577675
								CHANNELS 3 Xrotation Yrotation Zrotation
								End Site
								{
									OFFSET 0.000000 15.991302 0.000000
								}
							}
						}
						JOINT newVegas:Right_CapeA
						{
							OFFSET -5.115540 -8.608795 -10.395824
							CHANNELS 3 Xrotation Yrotation Zrotation
							JOINT newVegas:Right_CapeA1
							{
								OFFSET 0.000000 -8.688499 0.000000
								CHANNELS 3 Xrotation Yrotation Zrotation
								End Site
								{
									OFFSET 0.000000 8.688499 0.000000
								}
							}
						}
						JOINT newVegas:Right_CapeB
						{
							OFFSET -26.118187 -8.608795 -7.079266
							CHANNELS 3 Xrotation Yrotation Zrotation
							JOINT newVegas:Right_CapeB1
							{
								OFFSET 0.000000 -8.688499 0.000000
								CHANNELS 3 Xrotation Yrotation Zrotation
								End Site
								{
									OFFSET 0.000000 8.688499 0.000000
								}
							}
						}
					}
				}
				JOINT newVegas:Left_Collar
				{
					OFFSET 18.625099 8.655502 8.828100
					CHANNELS 3 Xrotation Yrotation Zrotation
					JOINT newVegas:Left_Collar1
					{
						OFFSET 14.783401 10.540405 -1.259500
						CHANNELS 3 Xrotation Yrotation Zrotation
						End Site
						{
							OFFSET 0.000000 18.199875 0.000000
						}
					}
				}
				JOINT newVegas:Collar_Back
				{
					OFFSET 0.000000 15.630707 -20.132601
					CHANNELS 3 Xrotation Yrotation Zrotation
					End Site
					{
						OFFSET 0.000000 22.523010 0.000000
					}
				}
				JOINT newVegas:Left_Peck
				{
					OFFSET 17.239599 -5.132599 25.482599
					CHANNELS 3 Xrotation Yrotation Zrotation
					End Site
					{
						OFFSET 0.000000 22.523010 0.000000
					}
				}
				JOINT newVegas:Right_Peck
				{
					OFFSET -17.239599 -5.132202 25.482599
					CHANNELS 3 Xrotation Yrotation Zrotation
					End Site
					{
						OFFSET 0.000000 22.523010 0.000000
					}
				}
				JOINT newVegas:Right_Collar
				{
					OFFSET -18.625099 8.655792 8.828100
					CHANNELS 3 Xrotation Yrotation Zrotation
					JOINT newVegas:Right_Collar1
					{
						OFFSET -14.783401 10.539993 -1.259500
						CHANNELS 3 Xrotation Yrotation Zrotation
						End Site
						{
							OFFSET 0.000000 18.199631 0.000000
						}
					}
				}
			}
		}
		JOINT newVegas:Belly
		{
			OFFSET 0.000000 -6.540398 9.014299
			CHANNELS 3 Xrotation Yrotation Zrotation
			End Site
			{
				OFFSET 0.000000 11.566666 0.000000
			}
		}
	}
	JOINT newVegas:ElvisFacialAnim_Joint
	{
		OFFSET 1.000000 -95.330101 -8.825800
		CHANNELS 3 Xrotation Yrotation Zrotation
		End Site
		{
			OFFSET 0.000000 35.315800 0.000000
		}
	}
}
MOTION
Frames: 4
Frame Time: 0.033333
0.997244 94.106300 6.169457 0.438465 18.034940 -1.040223 0.000000 0.000000 0.000000 -24.280759 12.421467 7.757831 17.164122 -9.695585 3.360142 4.793459 -8.475027 -5.637015 0.000000 -0.000001 0.000000 -0.000000 0.000002 -0.000000 8.425230 -10.718816 7.175938 3.330821 -9.927980 -6.054535 -10.955171 -24.541701 3.760914 -0.000000 -0.000001 0.000000 0.000000 0.000000 -0.000000 2.845647 2.002090 0.082303 1.107064 0.273506 0.568639 1.100963 0.294621 0.581401 -0.013957 -1.026895 -0.081782 -0.013961 -1.026895 -0.081781 0.000000 0.000002 -0.000000 -0.013955 -1.026889 -0.081782 -0.013887 -1.026888 -0.081781 -0.000000 0.000001 -0.000000 0.000000 0.000002 -0.000000 0.195675 -17.160212 -15.820847 3.537646 -28.021806 -59.604397 -0.000005 -6.205595 0.000013 -11.201013 -9.644021 -0.705912 -2.417590 -2.822186 4.851722 6.245016 10.960550 7.978895 -0.000004 -0.000000 -0.000003 1.067729 -8.925978 4.679054 0.010978 0.358902 -3.504463 0.000000 -0.000001 0.000000 0.051045 1.751225 -1.150030 0.001033 0.110201 -1.075455 -0.000002 0.000001 0.000001 0.663994 7.815366 -6.446776 0.023752 0.527613 -5.155703 0.000001 0.000001 -0.000000 3.201294 17.761277 -11.344780 0.026017 0.552143 -5.396112 0.000001 -0.000003 -0.000001 -0.000001 0.000000 -0.000000 -0.000001 0.000000 -0.000000 -0.000002 0.000000 0.000000 -0.000002 0.000000 0.000001 -0.000002 0.000000 -0.000000 -0.000002 0.000000 0.000001 -0.000002 -0.000000 0.000000 1.622697 23.405979 6.569980 -33.886300 1.407959 37.606902 0.000011 29.636211 -0.000020 -22.883832 13.734877 2.292118 -2.313684 0.486650 -5.610575 11.509430 -25.520488 -10.074933 -0.000004 0.000001 0.000003 0.123655 -0.875512 9.136806 0.123520 -1.066632 13.211963 -0.000002 0.000003 0.000000 0.810317 -5.480338 16.817253 0.203304 -1.362334 16.973783 0.000000 -0.000002 0.000003 0.381090 -4.076443 28.379467 0.523563 -2.147202 27.403487 0.000000 -0.000003 -0.000003 0.927506 -12.060828 41.777016 0.945044 -2.814323 37.117748 -0.000002 -0.000000 -0.000000 -0.000002 0.000002 -0.000001 -0.000002 0.000000 -0.000000 -0.000002 0.000002 -0.000000 0.000002 -0.000003 0.000001 0.000001 -0.000003 0.000003 0.000002 -0.000003 0.000001 0.000001 -0.000003 0.000003 0.000000 0.000000 0.000000 0.000000 0.000000 0.000000 0.000000 0.000000 0.000000 0.000000 0.000000 0.000000 0.000000 0.000000 0.000000 0.000000 0.000000 0.000000 0.000000 0.000000 0.000000 -0.000000 0.000000 -0.000000 0.000000 0.000000 0.000000 
1.069292 94.095177 6.178699 0.500711 18.244082 -1.035645 -0.000000 -0.000001 0.000000 -24.357839 12.437855 7.644855 17.140408 -9.691676 3.357828 4.847722 -8.657687 -5.554439 -0.000000 0.000000 -0.000000 0.000000 0.000000 0.000000 8.426118 -10.711276 7.156732 3.318166 -9.924967 -6.062551 -10.982932 -24.765426 3.790513 0.000000 -0.000000 -0.000000 0.000001 0.000000 -0.000000 2.844707 1.963994 0.049728 1.107469 0.240890 0.554022 1.101254 0.262124 0.565223 -0.049770 -1.047388 -0.081970 -0.049768 -1.047398 -0.081968 0.000000 0.000001 0.000000 -0.049769 -1.047392 -0.081969 -0.049701 -1.047406 -0.081966 -0.000000 -0.000001 -0.000000 0.000000 0.000001 0.000000 0.184644 -17.070760 -15.890177 3.566243 -28.220175 -59.460096 -0.000002 -6.333717 0.000029 -10.616396 -9.782492 -0.440243 -2.439801 -2.853961 4.880161 6.204251 10.845981 7.795189 0.000000 0.000000 -0.000004 1.053063 -8.905727 4.611502 0.010525 0.351410 -3.431235 0.000000 0.000000 0.000000 0.050992 1.767546 -1.179223 0.000979 0.107253 -1.046646 -0.000002 0.000001 -0.000000 0.671085 7.848753 -6.482663 0.023770 0.527794 -5.157413 0.000002 -0.000001 0.000000 3.199444 17.740156 -11.355807 0.027045 0.562848 -5.501048 0.000001 -0.000003 0.000001 0.000002 0.000000 0.000001 0.000002 0.000000 0.000001 0.000001 0.000000 0.000001 -0.000000 0.000000 0.000001 -0.000000 0.000001 0.000001 -0.000000 0.000000 0.000001 -0.000000 -0.000000 0.000000 1.695632 23.686384 6.107950 -34.999119 1.307519 37.047151 0.000011 30.064601 -0.000007 -22.650244 13.445256 2.281367 -2.329790 0.503088 -5.645320 11.480872 -25.414891 -9.921390 0.000003 -0.000000 -0.000001 0.128053 -0.929029 9.194189 0.121573 -1.058290 13.106571 0.000001 0.000001 -0.000001 0.837026 -5.562136 16.863541 0.203000 -1.361414 16.962042 -0.000000 -0.000001 -0.000002 0.392273 -4.100414 28.577821 0.529649 -2.158865 27.565105 -0.000000 0.000004 -0.000002 0.964910 -12.244295 42.152977 0.969374 -2.846129 37.610256 -0.000002 0.000002 -0.000000 -0.000000 -0.000001 -0.000001 -0.000000 -0.000001 0.000001 -0.000000 -0.000001 0.000001 -0.000001 -0.000002 -0.000001 -0.000001 -0.000002 0.000001 -0.000001 -0.000002 -0.000001 -0.000001 -0.000002 0.000002 -0.000000 0.000001 -0.000000 -0.000000 0.000001 -0.000000 -0.000000 0.000001 -0.000000 -0.000000 0.000001 -0.000000 -0.000000 0.000001 -0.000000 -0.000000 0.000001 -0.000000 -0.000000 0.000001 -0.000000 -0.000000 -0.000001 -0.000000 -0.000000 -0.000001 0.000000 
1.133708 94.084747 6.187237 0.576545 18.447287 -1.029727 -0.000000 0.000000 -0.000000 -24.426466 12.449989 7.527140 17.083691 -9.687689 3.353428 4.915107 -8.830078 -5.480346 -0.000000 0.000000 0.000000 0.000000 0.000000 -0.000000 8.390782 -10.709200 7.128714 3.334414 -9.922650 -6.069097 -11.011685 -24.970207 3.818819 0.000000 0.000000 -0.000000 0.000001 0.000000 -0.000000 2.843566 1.925085 0.007278 1.107879 0.212361 0.535019 1.101545 0.233270 0.545201 -0.075251 -1.064561 -0.081129 -0.075251 -1.064567 -0.081129 0.000000 0.000002 -0.000000 -0.075250 -1.064551 -0.081130 -0.075180 -1.064573 -0.081126 -0.000000 -0.000001 0.000000 0.000000 0.000002 -0.000000 0.168177 -17.027535 -15.971614 3.643732 -28.411340 -59.278611 -0.000004 -6.488211 -0.000010 -10.012150 -9.951475 -0.086863 -2.460376 -2.879589 4.910436 6.172884 10.746990 7.616774 -0.000000 0.000002 -0.000006 1.032342 -8.870898 4.518879 0.010190 0.345779 -3.376217 0.000001 -0.000000 -0.000000 0.050684 1.786544 -1.234536 0.000975 0.106892 -1.043132 0.000000 0.000000 -0.000000 0.679897 7.877055 -6.545585 0.024037 0.530652 -5.185529 -0.000004 -0.000001 0.000001 3.199575 17.696013 -11.394646 0.028351 0.576270 -5.632726 -0.000001 -0.000002 -0.000001 0.000002 0.000000 0.000001 0.000002 0.000000 0.000001 0.000002 0.000000 0.000001 -0.000002 0.000001 -0.000000 -0.000002 0.000001 -0.000001 -0.000002 0.000001 -0.000000 -0.000002 0.000000 -0.000000 1.765719 23.904146 5.671851 -36.048191 1.260886 36.532281 0.000014 30.568857 -0.000036 -22.378488 12.921903 2.118874 -2.345856 0.519537 -5.680062 11.452403 -25.309471 -9.767802 0.000000 -0.000003 0.000001 0.132556 -0.982504 9.251523 0.119633 -1.049931 13.001257 0.000000 -0.000002 -0.000000 0.863843 -5.643821 16.909834 0.202746 -1.360488 16.950298 0.000001 -0.000001 0.000002 0.403550 -4.124323 28.776103 0.535733 -2.170510 27.726683 -0.000001 -0.000001 -0.000003 1.003964 -12.427644 42.528490 0.993946 -2.877722 38.102538 0.000003 0.000005 0.000000 -0.000002 -0.000001 0.000000 0.000002 -0.000002 0.000000 -0.000002 -0.000001 0.000001 -0.000000 0.000002 -0.000001 -0.000000 0.000003 0.000001 -0.000000 0.000002 -0.000001 -0.000000 0.000003 0.000002 0.000000 0.000000 -0.000000 0.000000 0.000000 -0.000000 0.000000 0.000000 -0.000000 0.000000 0.000000 -0.000000 0.000000 0.000000 -0.000000 0.000000 0.000000 -0.000000 0.000000 0.000000 -0.000000 -0.000000 0.000001 -0.000000 -0.000000 0.000000 -0.000000 
1.204453 94.074615 6.194745 0.644872 18.640756 -1.017917 -0.000000 0.000001 -0.000000 -24.481782 12.451085 7.396577 17.011037 -9.684104 3.348806 4.997404 -8.982405 -5.405473 -0.000000 0.000001 0.000000 -0.000001 -0.000001 -0.000000 8.334906 -10.713128 7.084365 3.394858 -9.920430 -6.073887 -11.049682 -25.183047 3.857091 0.000000 0.000000 -0.000000 0.000000 -0.000000 -0.000000 2.834274 1.886584 -0.028511 1.108285 0.185485 0.514913 1.101835 0.206358 0.525043 -0.113694 -1.080510 -0.083443 -0.113708 -1.080507 -0.083444 -0.000000 0.000001 -0.000000 -0.113691 -1.080508 -0.083443 -0.113623 -1.080515 -0.083441 0.000000 -0.000001 0.000000 -0.000000 0.000001 -0.000000 0.150958 -16.950709 -16.082594 3.756835 -28.637508 -59.053570 -0.000007 -6.708008 0.000024 -9.411685 -10.023791 0.174055 -2.479286 -2.899061 4.942462 6.148235 10.665136 7.439939 -0.000001 0.000001 -0.000003 1.005358 -8.819297 4.400561 0.009979 0.342082 -3.340076 0.000003 0.000001 -0.000001 0.050167 1.808263 -1.316860 0.001020 0.109211 -1.065786 -0.000002 -0.000002 0.000000 0.690316 7.898577 -6.636517 0.024550 0.536302 -5.240864 -0.000002 -0.000001 0.000002 3.201649 17.628071 -11.462222 0.029978 0.592504 -5.791938 -0.000003 0.000000 0.000001 -0.000001 -0.000000 0.000001 -0.000001 -0.000000 0.000001 -0.000002 -0.000000 0.000001 0.000001 0.000001 -0.000000 0.000001 0.000001 -0.000000 0.000001 0.000001 -0.000000 0.000001 0.000000 -0.000001 1.841281 24.074112 5.203823 -37.037565 1.271739 36.035627 -0.000005 31.032452 0.000008 -22.073310 12.361270 2.171886 -2.361939 0.535961 -5.714732 11.424052 -25.204281 -9.614319 -0.000001 -0.000004 -0.000001 0.137123 -1.035942 9.308844 0.117729 -1.041582 12.896043 0.000000 0.000001 -0.000001 0.890765 -5.725394 16.956093 0.202439 -1.359602 16.938587 0.000001 -0.000001 -0.000006 0.414908 -4.148169 28.974158 0.541867 -2.182120 27.888059 -0.000001 -0.000001 -0.000002 1.044635 -12.610823 42.903376 1.018763 -2.909044 38.594298 0.000000 -0.000000 -0.000000 -0.000003 -0.000001 0.000001 0.000001 -0.000001 -0.000001 -0.000003 -0.000001 0.000001 -0.000002 0.000002 -0.000002 -0.000002 0.000003 -0.000002 -0.000002 0.000002 -0.000002 -0.000002 0.000003 -0.000001 -0.000000 0.000001 -0.000000 -0.000000 0.000001 -0.000000 -0.000000 0.000001 -0.000000 -0.000000 0.000001 -0.000000 -0.000000 0.000001 -0.000000 -0.000000 0.000001 -0.000000 -0.000000 0.000001 -0.000000 -0.000000 -0.000000 -0.000000 -0.000000 0.000001 -0.000000 
